<?xml version="1.0" encoding="UTF-8" standalone="no"?>
<!DOCTYPE svg PUBLIC "-//W3C//DTD SVG 1.1//EN"
 "http://www.w3.org/Graphics/SVG/1.1/DTD/svg11.dtd">
<!-- Generated by graphviz version 2.47.2 (20210527.0053)
 -->
<!-- Title: Knocks100 Pages: 1 -->
<svg width="550pt" height="585pt"
 viewBox="0.00 0.00 550.10 584.60" xmlns="http://www.w3.org/2000/svg" xmlns:xlink="http://www.w3.org/1999/xlink">
<g id="graph0" class="graph" transform="scale(1 1) rotate(0) translate(28.8 555.8)">
<title>Knocks100</title>
<polygon fill="white" stroke="transparent" points="-28.8,28.8 -28.8,-555.8 521.3,-555.8 521.3,28.8 -28.8,28.8"/>
<text text-anchor="middle" x="246.25" y="-512.6" font-family="Arial BoldMT" font-size="13.00">Knocks100 domain model</text>
<!-- m_Category -->
<g id="node1" class="node">
<title>m_Category</title>
<path fill="none" stroke="black" d="M12,-368.5C12,-368.5 137,-368.5 137,-368.5 143,-368.5 149,-374.5 149,-380.5 149,-380.5 149,-451.5 149,-451.5 149,-457.5 143,-463.5 137,-463.5 137,-463.5 12,-463.5 12,-463.5 6,-463.5 0,-457.5 0,-451.5 0,-451.5 0,-380.5 0,-380.5 0,-374.5 6,-368.5 12,-368.5"/>
<text text-anchor="start" x="50" y="-450.7" font-family="Arial BoldMT" font-size="11.00">Category</text>
<polyline fill="none" stroke="black" points="0,-443.5 149,-443.5 "/>
<text text-anchor="start" x="7.5" y="-430" font-family="ArialMT" font-size="10.00">category_major_cd </text>
<text text-anchor="start" x="93.5" y="-430" font-family="Arial ItalicMT" font-size="10.00" fill="#999999">string</text>
<text text-anchor="start" x="7.5" y="-417" font-family="ArialMT" font-size="10.00">category_major_name </text>
<text text-anchor="start" x="107.5" y="-417" font-family="Arial ItalicMT" font-size="10.00" fill="#999999">string</text>
<text text-anchor="start" x="7.5" y="-404" font-family="ArialMT" font-size="10.00">category_medium_cd </text>
<text text-anchor="start" x="104.5" y="-404" font-family="Arial ItalicMT" font-size="10.00" fill="#999999">string</text>
<text text-anchor="start" x="7.5" y="-391" font-family="ArialMT" font-size="10.00">category_medium_name </text>
<text text-anchor="start" x="117.5" y="-391" font-family="Arial ItalicMT" font-size="10.00" fill="#999999">string</text>
<text text-anchor="start" x="7.5" y="-378" font-family="ArialMT" font-size="10.00">category_small_name </text>
<text text-anchor="start" x="106.5" y="-378" font-family="Arial ItalicMT" font-size="10.00" fill="#999999">string</text>
</g>
<!-- m_Product -->
<g id="node4" class="node">
<title>m_Product</title>
<path fill="none" stroke="black" d="M14.5,-184.5C14.5,-184.5 134.5,-184.5 134.5,-184.5 140.5,-184.5 146.5,-190.5 146.5,-196.5 146.5,-196.5 146.5,-254.5 146.5,-254.5 146.5,-260.5 140.5,-266.5 134.5,-266.5 134.5,-266.5 14.5,-266.5 14.5,-266.5 8.5,-266.5 2.5,-260.5 2.5,-254.5 2.5,-254.5 2.5,-196.5 2.5,-196.5 2.5,-190.5 8.5,-184.5 14.5,-184.5"/>
<text text-anchor="start" x="53.5" y="-253.7" font-family="Arial BoldMT" font-size="11.00">Product</text>
<polyline fill="none" stroke="black" points="2.5,-246.5 146.5,-246.5 "/>
<text text-anchor="start" x="9.5" y="-233.5" font-family="ArialMT" font-size="10.00">category_major_cd </text>
<text text-anchor="start" x="95.5" y="-233.5" font-family="Arial ItalicMT" font-size="10.00" fill="#999999">string</text>
<text text-anchor="start" x="9.5" y="-220.5" font-family="ArialMT" font-size="10.00">category_medium_cd </text>
<text text-anchor="start" x="106.5" y="-220.5" font-family="Arial ItalicMT" font-size="10.00" fill="#999999">string</text>
<text text-anchor="start" x="9.5" y="-207.5" font-family="ArialMT" font-size="10.00">unit_cost </text>
<text text-anchor="start" x="52.5" y="-207.5" font-family="Arial ItalicMT" font-size="10.00" fill="#999999">float</text>
<text text-anchor="start" x="9.5" y="-194.5" font-family="ArialMT" font-size="10.00">unit_price </text>
<text text-anchor="start" x="55.5" y="-194.5" font-family="Arial ItalicMT" font-size="10.00" fill="#999999">float</text>
</g>
<!-- m_Category&#45;&gt;m_Product -->
<g id="edge1" class="edge">
<title>m_Category&#45;&gt;m_Product</title>
<path fill="none" stroke="black" d="M74.5,-368.4C74.5,-340.27 74.5,-304.44 74.5,-275.83"/>
<polygon fill="black" stroke="black" points="77.65,-275.81 74.5,-266.81 71.35,-275.81 77.65,-275.81"/>
</g>
<!-- m_Customer -->
<g id="node2" class="node">
<title>m_Customer</title>
<path fill="none" stroke="black" d="M187.5,-145.5C187.5,-145.5 307.5,-145.5 307.5,-145.5 313.5,-145.5 319.5,-151.5 319.5,-157.5 319.5,-157.5 319.5,-293.5 319.5,-293.5 319.5,-299.5 313.5,-305.5 307.5,-305.5 307.5,-305.5 187.5,-305.5 187.5,-305.5 181.5,-305.5 175.5,-299.5 175.5,-293.5 175.5,-293.5 175.5,-157.5 175.5,-157.5 175.5,-151.5 181.5,-145.5 187.5,-145.5"/>
<text text-anchor="start" x="221.5" y="-292.7" font-family="Arial BoldMT" font-size="11.00">Customer</text>
<polyline fill="none" stroke="black" points="175.5,-285.5 319.5,-285.5 "/>
<text text-anchor="start" x="182.5" y="-272.5" font-family="ArialMT" font-size="10.00">address </text>
<text text-anchor="start" x="220.5" y="-272.5" font-family="Arial ItalicMT" font-size="10.00" fill="#999999">string</text>
<text text-anchor="start" x="182.5" y="-259.5" font-family="ArialMT" font-size="10.00">age </text>
<text text-anchor="start" x="201.5" y="-259.5" font-family="Arial ItalicMT" font-size="10.00" fill="#999999">integer</text>
<text text-anchor="start" x="182.5" y="-246.5" font-family="ArialMT" font-size="10.00">application_date </text>
<text text-anchor="start" x="256.5" y="-246.5" font-family="Arial ItalicMT" font-size="10.00" fill="#999999">date</text>
<text text-anchor="start" x="182.5" y="-233.5" font-family="ArialMT" font-size="10.00">application_store_cd </text>
<text text-anchor="start" x="275.5" y="-233.5" font-family="Arial ItalicMT" font-size="10.00" fill="#999999">string</text>
<text text-anchor="start" x="182.5" y="-220.5" font-family="ArialMT" font-size="10.00">birth_day </text>
<text text-anchor="start" x="225.5" y="-220.5" font-family="Arial ItalicMT" font-size="10.00" fill="#999999">date</text>
<text text-anchor="start" x="182.5" y="-207.5" font-family="ArialMT" font-size="10.00">customer_name </text>
<text text-anchor="start" x="255.5" y="-207.5" font-family="Arial ItalicMT" font-size="10.00" fill="#999999">string</text>
<text text-anchor="start" x="182.5" y="-194.5" font-family="ArialMT" font-size="10.00">gender </text>
<text text-anchor="start" x="215.5" y="-194.5" font-family="Arial ItalicMT" font-size="10.00" fill="#999999">string</text>
<text text-anchor="start" x="182.5" y="-181.5" font-family="ArialMT" font-size="10.00">gender_cd </text>
<text text-anchor="start" x="231.5" y="-181.5" font-family="Arial ItalicMT" font-size="10.00" fill="#999999">string</text>
<text text-anchor="start" x="182.5" y="-168.5" font-family="ArialMT" font-size="10.00">postal_cd </text>
<text text-anchor="start" x="228.5" y="-168.5" font-family="Arial ItalicMT" font-size="10.00" fill="#999999">string</text>
<text text-anchor="start" x="182.5" y="-155.5" font-family="ArialMT" font-size="10.00">status_cd </text>
<text text-anchor="start" x="228.5" y="-155.5" font-family="Arial ItalicMT" font-size="10.00" fill="#999999">string</text>
</g>
<!-- m_Receipt -->
<g id="node5" class="node">
<title>m_Receipt</title>
<path fill="none" stroke="black" d="M187.5,-0.5C187.5,-0.5 307.5,-0.5 307.5,-0.5 313.5,-0.5 319.5,-6.5 319.5,-12.5 319.5,-12.5 319.5,-96.5 319.5,-96.5 319.5,-102.5 313.5,-108.5 307.5,-108.5 307.5,-108.5 187.5,-108.5 187.5,-108.5 181.5,-108.5 175.5,-102.5 175.5,-96.5 175.5,-96.5 175.5,-12.5 175.5,-12.5 175.5,-6.5 181.5,-0.5 187.5,-0.5"/>
<text text-anchor="start" x="227" y="-95.7" font-family="Arial BoldMT" font-size="11.00">Receipt</text>
<polyline fill="none" stroke="black" points="175.5,-88.5 319.5,-88.5 "/>
<text text-anchor="start" x="182.5" y="-75.5" font-family="ArialMT" font-size="10.00">amount </text>
<text text-anchor="start" x="218.5" y="-75.5" font-family="Arial ItalicMT" font-size="10.00" fill="#999999">integer</text>
<text text-anchor="start" x="182.5" y="-62.5" font-family="ArialMT" font-size="10.00">quantity </text>
<text text-anchor="start" x="220.5" y="-62.5" font-family="Arial ItalicMT" font-size="10.00" fill="#999999">integer</text>
<text text-anchor="start" x="182.5" y="-49.5" font-family="ArialMT" font-size="10.00">receipt_no </text>
<text text-anchor="start" x="231.5" y="-49.5" font-family="Arial ItalicMT" font-size="10.00" fill="#999999">integer</text>
<text text-anchor="start" x="182.5" y="-36.5" font-family="ArialMT" font-size="10.00">receipt_sub_no </text>
<text text-anchor="start" x="252.5" y="-36.5" font-family="Arial ItalicMT" font-size="10.00" fill="#999999">integer</text>
<text text-anchor="start" x="182.5" y="-23.5" font-family="ArialMT" font-size="10.00">sales_epoch </text>
<text text-anchor="start" x="240.5" y="-23.5" font-family="Arial ItalicMT" font-size="10.00" fill="#999999">integer</text>
<text text-anchor="start" x="182.5" y="-10.5" font-family="ArialMT" font-size="10.00">sales_ymd </text>
<text text-anchor="start" x="233.5" y="-10.5" font-family="Arial ItalicMT" font-size="10.00" fill="#999999">date</text>
</g>
<!-- m_Customer&#45;&gt;m_Receipt -->
<g id="edge2" class="edge">
<title>m_Customer&#45;&gt;m_Receipt</title>
<path fill="none" stroke="black" d="M247.5,-145.44C247.5,-136.26 247.5,-126.99 247.5,-118.08"/>
<polygon fill="black" stroke="black" points="250.65,-117.93 247.5,-108.93 244.35,-117.93 250.65,-117.93"/>
</g>
<!-- m_Geocode -->
<g id="node3" class="node">
<title>m_Geocode</title>
<path fill="none" stroke="black" d="M190.5,-342.5C190.5,-342.5 310.5,-342.5 310.5,-342.5 316.5,-342.5 322.5,-348.5 322.5,-354.5 322.5,-354.5 322.5,-477.5 322.5,-477.5 322.5,-483.5 316.5,-489.5 310.5,-489.5 310.5,-489.5 190.5,-489.5 190.5,-489.5 184.5,-489.5 178.5,-483.5 178.5,-477.5 178.5,-477.5 178.5,-354.5 178.5,-354.5 178.5,-348.5 184.5,-342.5 190.5,-342.5"/>
<text text-anchor="start" x="226.5" y="-476.7" font-family="Arial BoldMT" font-size="11.00">Geocode</text>
<polyline fill="none" stroke="black" points="178.5,-469.5 322.5,-469.5 "/>
<text text-anchor="start" x="185.5" y="-456" font-family="ArialMT" font-size="10.00">address </text>
<text text-anchor="start" x="223.5" y="-456" font-family="Arial ItalicMT" font-size="10.00" fill="#999999">string</text>
<text text-anchor="start" x="185.5" y="-443" font-family="ArialMT" font-size="10.00">city </text>
<text text-anchor="start" x="204.5" y="-443" font-family="Arial ItalicMT" font-size="10.00" fill="#999999">string</text>
<text text-anchor="start" x="185.5" y="-430" font-family="ArialMT" font-size="10.00">full_address </text>
<text text-anchor="start" x="241.5" y="-430" font-family="Arial ItalicMT" font-size="10.00" fill="#999999">string</text>
<text text-anchor="start" x="185.5" y="-417" font-family="ArialMT" font-size="10.00">latitude </text>
<text text-anchor="start" x="220.5" y="-417" font-family="Arial ItalicMT" font-size="10.00" fill="#999999">decimal (11,8)</text>
<text text-anchor="start" x="185.5" y="-404" font-family="ArialMT" font-size="10.00">longitude </text>
<text text-anchor="start" x="228.5" y="-404" font-family="Arial ItalicMT" font-size="10.00" fill="#999999">decimal (11,8)</text>
<text text-anchor="start" x="185.5" y="-391" font-family="ArialMT" font-size="10.00">postal_cd </text>
<text text-anchor="start" x="231.5" y="-391" font-family="Arial ItalicMT" font-size="10.00" fill="#999999">string</text>
<text text-anchor="start" x="185.5" y="-378" font-family="ArialMT" font-size="10.00">prefecture </text>
<text text-anchor="start" x="232.5" y="-378" font-family="Arial ItalicMT" font-size="10.00" fill="#999999">string</text>
<text text-anchor="start" x="185.5" y="-365" font-family="ArialMT" font-size="10.00">street </text>
<text text-anchor="start" x="213.5" y="-365" font-family="Arial ItalicMT" font-size="10.00" fill="#999999">string</text>
<text text-anchor="start" x="185.5" y="-352" font-family="ArialMT" font-size="10.00">town </text>
<text text-anchor="start" x="210.5" y="-352" font-family="Arial ItalicMT" font-size="10.00" fill="#999999">string</text>
</g>
<!-- m_Product&#45;&gt;m_Receipt -->
<g id="edge3" class="edge">
<title>m_Product&#45;&gt;m_Receipt</title>
<path fill="none" stroke="black" d="M115.5,-184.45C136.69,-163.75 162.97,-138.08 186.49,-115.1"/>
<polygon fill="black" stroke="black" points="188.81,-117.24 193.04,-108.7 184.4,-112.73 188.81,-117.24"/>
</g>
<!-- m_Store -->
<g id="node6" class="node">
<title>m_Store</title>
<path fill="none" stroke="black" d="M360.5,-152C360.5,-152 480.5,-152 480.5,-152 486.5,-152 492.5,-158 492.5,-164 492.5,-164 492.5,-287 492.5,-287 492.5,-293 486.5,-299 480.5,-299 480.5,-299 360.5,-299 360.5,-299 354.5,-299 348.5,-293 348.5,-287 348.5,-287 348.5,-164 348.5,-164 348.5,-158 354.5,-152 360.5,-152"/>
<text text-anchor="start" x="405" y="-286.2" font-family="Arial BoldMT" font-size="11.00">Store</text>
<polyline fill="none" stroke="black" points="348.5,-279 492.5,-279 "/>
<text text-anchor="start" x="355.5" y="-265.5" font-family="ArialMT" font-size="10.00">address </text>
<text text-anchor="start" x="393.5" y="-265.5" font-family="Arial ItalicMT" font-size="10.00" fill="#999999">string</text>
<text text-anchor="start" x="355.5" y="-252.5" font-family="ArialMT" font-size="10.00">address_kana </text>
<text text-anchor="start" x="419.5" y="-252.5" font-family="Arial ItalicMT" font-size="10.00" fill="#999999">string</text>
<text text-anchor="start" x="355.5" y="-239.5" font-family="ArialMT" font-size="10.00">floor_area </text>
<text text-anchor="start" x="401.5" y="-239.5" font-family="Arial ItalicMT" font-size="10.00" fill="#999999">string</text>
<text text-anchor="start" x="355.5" y="-226.5" font-family="ArialMT" font-size="10.00">latitude </text>
<text text-anchor="start" x="390.5" y="-226.5" font-family="Arial ItalicMT" font-size="10.00" fill="#999999">decimal (11,8)</text>
<text text-anchor="start" x="355.5" y="-213.5" font-family="ArialMT" font-size="10.00">longitude </text>
<text text-anchor="start" x="398.5" y="-213.5" font-family="Arial ItalicMT" font-size="10.00" fill="#999999">decimal (11,8)</text>
<text text-anchor="start" x="355.5" y="-200.5" font-family="ArialMT" font-size="10.00">prefecture </text>
<text text-anchor="start" x="402.5" y="-200.5" font-family="Arial ItalicMT" font-size="10.00" fill="#999999">string</text>
<text text-anchor="start" x="355.5" y="-187.5" font-family="ArialMT" font-size="10.00">prefecture_cd </text>
<text text-anchor="start" x="418.5" y="-187.5" font-family="Arial ItalicMT" font-size="10.00" fill="#999999">string</text>
<text text-anchor="start" x="355.5" y="-174.5" font-family="ArialMT" font-size="10.00">store_name </text>
<text text-anchor="start" x="410.5" y="-174.5" font-family="Arial ItalicMT" font-size="10.00" fill="#999999">string</text>
<text text-anchor="start" x="355.5" y="-161.5" font-family="ArialMT" font-size="10.00">tel_no </text>
<text text-anchor="start" x="385.5" y="-161.5" font-family="Arial ItalicMT" font-size="10.00" fill="#999999">string</text>
</g>
<!-- m_Store&#45;&gt;m_Receipt -->
<g id="edge4" class="edge">
<title>m_Store&#45;&gt;m_Receipt</title>
<path fill="none" stroke="black" d="M348.39,-154.05C335.12,-141.1 321.39,-127.68 308.5,-115.09"/>
<polygon fill="black" stroke="black" points="310.47,-112.61 301.83,-108.58 306.07,-117.12 310.47,-112.61"/>
</g>
</g>
</svg>
